<svg xmlns="http://www.w3.org/2000/svg" version="1.1" xmlns:xlink="http://www.w3.org/1999/xlink" xmlns:svgjs="http://svgjs.dev/svgjs" width="1500" height="935" viewBox="0 0 1500 935"><g transform="matrix(1,0,0,1,-0.9090909090909918,0.3785425101214628)"><svg viewBox="0 0 396 247" data-background-color="#ffffff" preserveAspectRatio="xMidYMid meet" height="935" width="1500" xmlns="http://www.w3.org/2000/svg" xmlns:xlink="http://www.w3.org/1999/xlink"><g id="tight-bounds" transform="matrix(1,0,0,1,0.2400000000000091,-0.09999999999999432)"><svg viewBox="0 0 395.52 247.2" height="247.2" width="395.52"><g><svg></svg></g><g><svg viewBox="0 0 395.52 247.2" height="247.2" width="395.52"><mask id="15a78cb4-810d-4138-8ef3-512c97e12c3f"><rect width="395.52" height="247.2" fill="white"></rect><g transform="matrix(1,0,0,1,0,77.13522602936942)" id="clone"><svg viewBox="0 0 395.52 92.92954794126116" height="92.92954794126116" width="395.52"><g><svg viewBox="0 0 395.52 92.92954794126116" height="92.92954794126116" width="395.52"><g><svg viewBox="0 0 395.52 92.92954794126116" height="92.92954794126116" width="395.52"><g><svg viewBox="0 0 395.52 92.92954794126116" height="92.92954794126116" width="395.52"><g id="SvgjsG1775"><svg viewBox="0 0 395.52 92.92954794126116" height="92.92954794126116" width="395.52" id="SvgjsSvg1774"><g><svg viewBox="0 0 395.52 92.92954794126116" height="92.92954794126116" width="395.52"><g transform="matrix(1,0,0,1,0,0)"><svg width="395.52" viewBox="-3 -38.8 174.64 41.8" height="92.92954794126116" data-palette-color="#264f0b"><path d="M30.45-2.15L37.85-2.15 37.85 0 0 0 0-2.15 12.1-2.15Q7.75-4.35 5.18-8.6 2.6-12.85 2.6-18.2L2.6-18.2Q2.6-25.85 7.9-30.83 13.2-35.8 20.78-35.8 28.35-35.8 33.35-31.4L33.35-31.4 30.2-26.9Q28.15-28.65 26.08-29.33 24-30 21.25-30L21.25-30Q15.9-30 12.33-26.8 8.75-23.6 8.75-18.05 8.75-12.5 12.25-9.13 15.75-5.75 20.73-5.75 25.7-5.75 29.05-7.9L29.05-7.9 29.05-17.5 34.95-17.5 34.95-5.55Q33.1-3.5 30.45-2.15L30.45-2.15ZM70.65-2.15L75.5-2.15 75.5 0 64.7 0 56.35-11.75 48.6-11.75 48.6 0 37.85 0 37.85-2.15 42.7-2.15 42.7-34.95 55.7-34.95Q63.7-34.95 67.15-32.25 70.6-29.55 70.6-23.6L70.6-23.6Q70.6-14.95 63.05-12.7L63.05-12.7 70.65-2.15ZM55.95-17.1Q60.95-17.1 62.75-18.65 64.55-20.2 64.55-23.63 64.55-27.05 62.7-28.33 60.85-29.6 56.1-29.6L56.1-29.6 48.6-29.6 48.6-17.1 55.95-17.1ZM104.8-2.15L116.25-2.15 116.25 0 74.25 0 74.25-2.15 85.7-2.15Q81.59-4.5 79.22-8.6 76.84-12.7 76.84-17.75L76.84-17.75Q76.84-25.45 82.15-30.63 87.45-35.8 95.25-35.8 103.05-35.8 108.34-30.63 113.65-25.45 113.65-17.75L113.65-17.75Q113.65-12.75 111.27-8.6 108.9-4.45 104.8-2.15L104.8-2.15ZM104.02-26.7Q100.45-30.4 95.25-30.4 90.05-30.4 86.47-26.7 82.9-23 82.9-17.73 82.9-12.45 86.47-8.75 90.05-5.05 95.25-5.05 100.45-5.05 104.02-8.75 107.59-12.45 107.59-17.73 107.59-23 104.02-26.7ZM156.59-2.15L168.64-2.15 168.64 0 149.99 0 142.64-23.95 142.24-23.95 134.89 0 116.24 0 116.24-2.15 128.29-2.15 116.84-34.95 123.19-34.95 131.99-9.8 139.79-34.95 145.09-34.95 152.89-9.8 161.69-34.95 168.04-34.95 156.59-2.15Z" opacity="1" transform="matrix(1,0,0,1,0,0)" fill="black" class="wordmark-text-0" id="SvgjsPath1773" stroke-width="5" stroke="black" stroke-linejoin="round"></path></svg></g></svg></g></svg></g></svg></g><g></g></svg></g></svg></g></svg></g></mask><g mask="url(#15a78cb4-810d-4138-8ef3-512c97e12c3f)"><g><path d="M277.34 232.354h51.098v14.846h-261.356v-14.846h83.551c-20.025-10.127-35.952-24.973-47.783-44.537-11.877-19.564-17.815-41.66-17.815-66.289v0c0-35.216 12.199-64.286 36.597-87.21 24.398-22.879 54.043-34.318 88.937-34.318 34.847 0 63.779 10.127 86.796 30.382v0l-21.751 31.073c-9.437-8.056-18.92-13.649-28.449-16.779-9.575-3.084-20.692-4.626-33.351-4.627v0c-24.628 0-45.159 7.365-61.593 22.096-16.48 14.731-24.72 34.87-24.72 60.419 0 25.549 8.056 46.08 24.168 61.593 16.112 15.559 35.63 23.339 58.555 23.339 22.879 0 42.029-4.949 57.449-14.846v0-66.288h40.74v82.515c-8.516 9.437-18.874 17.263-31.073 23.477z" fill="#264f0b" fill-rule="nonzero" stroke="none" stroke-width="1" stroke-linecap="butt" stroke-linejoin="miter" stroke-miterlimit="10" stroke-dasharray="" stroke-dashoffset="0" font-family="none" font-weight="none" font-size="none" text-anchor="none" style="mix-blend-mode: normal" data-fill-palette-color="tertiary"></path></g></g><g transform="matrix(1,0,0,1,0,77.13522602936942)"><svg viewBox="0 0 395.52 92.92954794126116" height="92.92954794126116" width="395.52"><g><svg viewBox="0 0 395.52 92.92954794126116" height="92.92954794126116" width="395.52"><g><svg viewBox="0 0 395.52 92.92954794126116" height="92.92954794126116" width="395.52"><g><svg viewBox="0 0 395.52 92.92954794126116" height="92.92954794126116" width="395.52"><g id="textblocktransform"><svg viewBox="0 0 395.52 92.92954794126116" height="92.92954794126116" width="395.52" id="textblock"><g><svg viewBox="0 0 395.52 92.92954794126116" height="92.92954794126116" width="395.52"><g transform="matrix(1,0,0,1,0,0)"><svg width="395.52" viewBox="-3 -38.8 174.64 41.8" height="92.92954794126116" data-palette-color="#264f0b"><path d="M30.45-2.15L37.85-2.15 37.85 0 0 0 0-2.15 12.1-2.15Q7.75-4.35 5.18-8.6 2.6-12.85 2.6-18.2L2.6-18.2Q2.6-25.85 7.9-30.83 13.2-35.8 20.78-35.8 28.35-35.8 33.35-31.4L33.35-31.4 30.2-26.9Q28.15-28.65 26.08-29.33 24-30 21.25-30L21.25-30Q15.9-30 12.33-26.8 8.75-23.6 8.75-18.05 8.75-12.5 12.25-9.13 15.75-5.75 20.73-5.75 25.7-5.75 29.05-7.9L29.05-7.9 29.05-17.5 34.95-17.5 34.95-5.55Q33.1-3.5 30.45-2.15L30.45-2.15ZM70.65-2.15L75.5-2.15 75.5 0 64.7 0 56.35-11.75 48.6-11.75 48.6 0 37.85 0 37.85-2.15 42.7-2.15 42.7-34.95 55.7-34.95Q63.7-34.95 67.15-32.25 70.6-29.55 70.6-23.6L70.6-23.6Q70.6-14.95 63.05-12.7L63.05-12.7 70.65-2.15ZM55.95-17.1Q60.95-17.1 62.75-18.65 64.55-20.2 64.55-23.63 64.55-27.05 62.7-28.33 60.85-29.6 56.1-29.6L56.1-29.6 48.6-29.6 48.6-17.1 55.95-17.1ZM104.8-2.15L116.25-2.15 116.25 0 74.25 0 74.25-2.15 85.7-2.15Q81.59-4.5 79.22-8.6 76.84-12.7 76.84-17.75L76.84-17.75Q76.84-25.45 82.15-30.63 87.45-35.8 95.25-35.8 103.05-35.8 108.34-30.63 113.65-25.45 113.65-17.75L113.65-17.75Q113.65-12.75 111.27-8.6 108.9-4.45 104.8-2.15L104.8-2.15ZM104.02-26.7Q100.45-30.4 95.25-30.4 90.05-30.4 86.47-26.7 82.9-23 82.9-17.73 82.9-12.45 86.47-8.75 90.05-5.05 95.25-5.05 100.45-5.05 104.02-8.75 107.59-12.45 107.59-17.73 107.59-23 104.02-26.7ZM156.59-2.15L168.64-2.15 168.64 0 149.99 0 142.64-23.95 142.24-23.95 134.89 0 116.24 0 116.24-2.15 128.29-2.15 116.84-34.95 123.19-34.95 131.99-9.8 139.79-34.95 145.09-34.95 152.89-9.8 161.69-34.95 168.04-34.95 156.59-2.15Z" opacity="1" transform="matrix(1,0,0,1,0,0)" fill="#264f0b" class="wordmark-text-0" data-fill-palette-color="primary" id="text-0"></path></svg></g></svg></g></svg></g></svg></g><g></g></svg></g></svg></g></svg></g></svg></g><defs></defs></svg><rect width="395.52" height="247.2" fill="none" stroke="none" visibility="hidden"></rect></g></svg></g></svg>